# xmcd
#
# Track frame offsets: 
#        182
#        7405
#        12800
#        18325
#        25260
#        38552
#        55235
#        62822
#        84327
#        99092
#        107185
#        115107
#        124180
#        132785
#        142007
#        151292
#        159332
#        167610
#        178170
#        186672
#        196202
#
# Disc length: 2811 seconds
#
# Revision: 0
# Processed by: cddbd v1.5.1PL2 Copyright (c) Steve Scherf et al.
# Submitted via: ExactAudioCopy v0.95b3
#
DISCID=130af915
DTITLE=Various Artist - Boogie Woogie Story Vol. 1 (1917-1922)
DYEAR=1993
DGENRE=Boogie Woogie
TTITLE0=CNRS - Water-Drum Solo From West Africa
TTITLE1=CNRS - Xylophone Solo From West Africa
TTITLE2=CNRS - Harp-Lute Solo From West Africa
TTITLE3=Eubie Blake - Charleston Rag (extract)
TTITLE4=Eubie Blake - Home Again Blues
TTITLE5=Eubie Blake - Don't Tell Your Monkey Man
TTITLE6=James P. Johnson - If You've Never Been Vamped By A Brown Skin
TTITLE6=, You've Never Been Vamped At All (extract)
TTITLE7=James P. Johnson - Arkansas Blues
TTITLE8=Eubie Blake - Arkansas Blues
TTITLE9=Clarence Johnson - Corn Trimmers
TTITLE10=Clarence Johnson - That's Your Yass, Yass, Yass
TTITLE11=Clarence Johnson - Five O'Clock Stomp
TTITLE12=Jimmy Blythe - Comin' Home Blues
TTITLE13=Jimmy Blythe - Sugar Dew Blues
TTITLE14=Jimmy Blythe - When You're On Your Last Go-Round
TTITLE15=Jimmy Blythe - Black Gal Make It Thunder
TTITLE16=Jimmy Blythe - Mama's Got 'Em
TTITLE17=Jimmy Blythe - Underworld Blues
TTITLE18=Jimmy Blythe - Steppin' On The Gas
TTITLE19=Jimmy Blythe - Farm House Blues
TTITLE20=Fats Waller - Muscle Shoals Blues
EXTD=
EXTT0=
EXTT1=
EXTT2=
EXTT3=
EXTT4=
EXTT5=
EXTT6=
EXTT7=
EXTT8=
EXTT9=
EXTT10=
EXTT11=
EXTT12=
EXTT13=
EXTT14=
EXTT15=
EXTT16=
EXTT17=
EXTT18=
EXTT19=
EXTT20=
PLAYORDER=
